<svg width="1024" height="1024" viewBox="0 0 1024 1024" fill="none" xmlns="http://www.w3.org/2000/svg">
<circle cx="512" cy="512" r="252" stroke="white" stroke-width="8"/>
<circle cx="510.634" cy="511.634" r="355" transform="rotate(-30 510.634 511.634)" stroke="white" stroke-width="8" stroke-linecap="round" stroke-dasharray="180 180"/>
<path d="M371.68 652V465.632H391.904V633.824H412.896V652H371.68ZM425.68 482.272C425.68 477.664 427.301 473.739 430.544 470.496C433.787 467.253 437.712 465.632 442.32 465.632H461.52C466.128 465.632 470.053 467.253 473.296 470.496C476.539 473.739 478.16 477.664 478.16 482.272V652H457.936V567.776H445.904V652H425.68V482.272ZM457.936 483.808H445.904V549.344H457.936V483.808ZM525.686 549.344V483.808H513.654V549.344H525.686ZM513.654 567.776V633.824H525.686V567.776H513.654ZM545.91 544.736C545.91 546.101 545.825 547.552 545.654 549.088C545.483 550.453 544.971 551.819 544.118 553.184C543.435 554.549 542.326 555.744 540.79 556.768C539.425 557.792 537.462 558.475 534.902 558.816C537.462 559.157 539.425 559.84 540.79 560.864C542.326 561.888 543.435 563.083 544.118 564.448C544.971 565.813 545.483 567.264 545.654 568.8C545.825 570.336 545.91 571.701 545.91 572.896V635.616C545.91 640.053 544.289 643.893 541.046 647.136C537.803 650.379 533.963 652 529.526 652H493.43V465.632H529.526C533.963 465.632 537.803 467.253 541.046 470.496C544.289 473.739 545.91 477.664 545.91 482.272V544.736ZM650.648 634.592C650.648 640.053 649.112 644.32 646.04 647.392C642.968 650.464 638.701 652 633.24 652H616.088C610.627 652 606.36 650.464 603.288 647.392C600.216 644.32 598.68 640.053 598.68 634.592V483.04C598.68 477.92 600.216 473.739 603.288 470.496C606.36 467.253 610.627 465.632 616.088 465.632H633.24C638.701 465.632 642.968 467.253 646.04 470.496C649.112 473.739 650.648 477.92 650.648 483.04V526.048H630.424V483.808H618.904V633.824H630.424V591.584H650.648V634.592Z" fill="white"/>
<path d="M622.316 368.33C622.316 368.27 622.317 360.087 622.317 360.024H630.61C638.612 360.024 645.122 353.514 645.122 345.512C645.122 337.51 638.612 331 630.61 331C610.76 331 526.207 331 514.512 331C506.51 331 500 337.51 500 345.512C500 353.514 506.51 360.024 514.512 360.024H522.805V368.317C522.821 368.869 522.891 369.318 523.098 369.843C523.401 370.604 523.912 371.242 524.541 371.691L551.829 391.182V401.488C551.829 402.793 552.444 404.022 553.488 404.805L568.415 416L572.561 433C572.542 432.924 572.542 432.924 572.561 433L576.707 416L591.634 404.804C592.679 404.021 593.293 402.792 593.293 401.487V391.182C622.083 370.588 620.634 371.717 621.099 371.252C621.871 370.481 622.313 369.418 622.316 368.33ZM636.829 345.512C636.829 348.942 634.039 351.732 630.61 351.732H622.317V339.293H630.61C634.039 339.293 636.829 342.083 636.829 345.512ZM614.024 364.171H531.098C531.098 361.988 531.098 345.567 531.098 339.293H614.024C614.024 343.066 614.024 357.632 614.024 364.171ZM514.512 351.732C511.083 351.732 508.293 348.942 508.293 345.512C508.293 342.083 511.083 339.293 514.512 339.293H522.805V351.732H514.512ZM585 399.415L572.561 408.744L560.122 399.415V393.195H585V399.415ZM587.817 384.902H557.305L539.89 372.463H605.232L587.817 384.902Z" fill="white"/>
<path d="M545.048 352.732H590.658C592.948 352.732 594.805 350.875 594.805 348.585C594.805 346.295 592.948 344.439 590.658 344.439H545.048C542.758 344.439 540.902 346.295 540.902 348.585C540.902 350.875 542.758 352.732 545.048 352.732Z" fill="white"/>
<path d="M603.098 352.732C605.387 352.732 607.244 350.875 607.244 348.585C607.244 346.295 605.387 344.439 603.098 344.439C600.808 344.439 598.951 346.295 598.951 348.585C598.951 350.875 600.808 352.732 603.098 352.732Z" fill="white"/>
<path d="M652.854 381.756C655.144 381.756 657 379.9 657 377.61C657 375.32 655.144 373.463 652.854 373.463C650.564 373.463 648.707 375.32 648.707 377.61C648.707 379.9 650.564 381.756 652.854 381.756Z" fill="white"/>
<path d="M607.244 427.366C609.534 427.366 611.391 425.509 611.391 423.22C611.391 420.93 609.534 419.073 607.244 419.073C604.954 419.073 603.098 420.93 603.098 423.22C603.098 425.509 604.954 427.366 607.244 427.366Z" fill="white"/>
<path d="M532.61 410.781C534.9 410.781 536.756 408.924 536.756 406.634C536.756 404.344 534.9 402.488 532.61 402.488C530.32 402.488 528.464 404.344 528.464 406.634C528.464 408.924 530.32 410.781 532.61 410.781Z" fill="white"/>
<path d="M491.146 377.61C493.436 377.61 495.293 375.753 495.293 373.463C495.293 371.173 493.436 369.317 491.146 369.317C488.856 369.317 487 371.173 487 373.463C487 375.753 488.856 377.61 491.146 377.61Z" fill="white"/>
<path d="M507.732 423.219C500.873 423.219 495.293 428.799 495.293 435.658C495.293 442.517 500.873 448.097 507.732 448.097C514.591 448.097 520.171 442.517 520.171 435.658C520.171 428.799 514.591 423.219 507.732 423.219ZM507.732 439.805C505.445 439.805 503.585 437.945 503.585 435.659C503.585 433.372 505.445 431.512 507.732 431.512C510.018 431.512 511.878 433.372 511.878 435.659C511.878 437.945 510.018 439.805 507.732 439.805Z" fill="white"/>
<path d="M640.415 394.195C631.27 394.195 623.829 401.635 623.829 410.78C623.829 419.926 631.27 427.366 640.415 427.366C649.56 427.366 657 419.926 657 410.78C657 401.635 649.56 394.195 640.415 394.195ZM640.415 419.073C635.842 419.073 632.122 415.353 632.122 410.78C632.122 406.208 635.842 402.488 640.415 402.488C644.987 402.488 648.707 406.208 648.707 410.78C648.707 415.353 644.987 419.073 640.415 419.073Z" fill="white"/>
<path d="M567 466C569 458 576 458 578 466C580 474 582 496.5 582 496.5V652H562V496.5C562 496.5 565 474 567 466Z" fill="white"/>
<path d="M561.5 411C557.5 408 588 408 583.5 411C579 414 577.352 425.75 577.352 425.75C577.352 425.75 575.852 429.25 575.852 441.25C575.852 453.25 576.5 456 576.5 456C576.5 456 577.852 464.25 579.352 473.25C580.852 482.25 564 482.25 565.5 473.25C567 464.25 568.5 456 568.5 456C568.5 456 569.352 453.25 569.352 441.25C569.352 429.25 568.352 425.75 568.352 425.75C568.352 425.75 565.5 414 561.5 411Z" fill="white"/>
<path d="M696.613 198.63C696.251 197.556 696.09 196.426 696.137 195.302C696.221 193.315 696.947 191.34 698.332 189.718C699.962 187.811 702.206 186.73 704.521 186.53C706.056 186.412 707.517 186.63 708.935 187.24C709.446 186.252 710.095 185.347 710.857 184.553C712.194 183.157 713.888 182.095 715.8 181.509C717.716 180.922 719.712 180.85 721.6 181.254C722.975 181.548 724.3 182.098 725.5 182.884C726.7 182.098 728.025 181.548 729.4 181.254C731.288 180.85 733.284 180.922 735.2 181.509C737.112 182.095 738.806 183.157 740.143 184.553C740.905 185.347 741.554 186.252 742.065 187.24C743.473 186.635 744.988 186.403 746.471 186.53C748.794 186.73 751.038 187.811 752.668 189.718C754.053 191.34 754.779 193.315 754.863 195.302C754.91 196.426 754.749 197.556 754.387 198.63C757.637 199.218 760.713 200.769 763.155 203.21C765.691 205.747 767.268 208.969 767.8 212.361C768.283 215.439 767.897 218.659 766.583 221.626C767.37 223.608 767.685 225.712 767.536 227.778C767.392 229.778 766.815 231.751 765.816 233.551C766.53 235.144 766.911 236.855 766.955 238.577C767.008 240.677 766.558 242.789 765.6 244.719C764.64 246.654 763.228 248.295 761.523 249.522C760.608 250.181 759.608 250.722 758.549 251.128C758.819 251.751 759.013 252.4 759.129 253.063C759.421 254.729 759.215 256.487 758.472 258.1C757.731 259.707 756.527 261.007 755.069 261.869C754.11 262.437 753.039 262.817 751.916 262.976C751.189 266.015 749.54 268.672 747.296 270.658C744.577 273.062 740.81 274.538 737.162 274.394C733.481 274.329 730.092 272.921 727.622 270.617C726.81 269.858 726.096 269.005 725.5 268.071C724.905 269.005 724.191 269.859 723.378 270.618C720.91 272.922 717.519 274.329 713.838 274.394C710.049 274.428 706.552 273.177 703.704 270.658C701.46 268.672 699.811 266.015 699.084 262.976C697.961 262.817 696.89 262.437 695.931 261.869C694.473 261.007 693.269 259.707 692.528 258.1C691.785 256.487 691.579 254.729 691.869 253.063C692.008 252.371 692.169 251.78 692.451 251.128C691.392 250.722 690.392 250.181 689.477 249.522C687.772 248.295 686.36 246.654 685.4 244.719C684.442 242.789 683.992 240.677 684.045 238.577C684.089 236.855 684.47 235.144 685.184 233.551C684.185 231.751 683.608 229.778 683.464 227.778C683.315 225.712 683.63 223.608 684.417 221.626C683.103 218.659 682.717 215.439 683.2 212.361C683.732 208.969 685.309 205.747 687.845 203.21C690.287 200.769 693.363 199.218 696.613 198.63ZM732.535 221.595C733.583 221.315 734.66 221.938 734.94 222.985C735.22 224.033 734.598 225.11 733.55 225.39C732.057 225.794 730.719 226.586 729.656 227.649C728.653 228.652 727.891 229.904 727.467 231.305V254.977C728.262 254.977 729.052 255.06 729.825 255.219C731.379 255.539 732.858 256.174 734.172 257.1C735.235 257.852 736.159 258.776 736.91 259.824C737.194 259.855 737.477 259.848 737.751 259.806C738.225 259.731 738.689 259.548 739.1 259.266C739.503 258.988 739.84 258.617 740.084 258.188C740.325 257.767 740.474 257.292 740.508 256.807C740.579 255.726 741.516 254.907 742.597 254.978C743.678 255.049 744.497 255.986 744.426 257.067C744.349 258.166 744.024 259.217 743.496 260.139C742.971 261.058 742.232 261.868 741.328 262.492C740.529 263.041 739.634 263.419 738.704 263.613C738.827 264.075 738.922 264.547 738.989 265.027C739.133 266.1 738.379 267.088 737.306 267.232C736.233 267.376 735.245 266.623 735.101 265.55C734.813 263.442 733.65 261.538 731.914 260.312C731.038 259.695 730.056 259.273 729.034 259.06C728.521 258.955 727.995 258.9 727.467 258.9C727.467 259.763 727.452 260.633 727.467 261.496C727.526 263.985 728.605 266.165 730.295 267.743C732.081 269.41 734.542 270.428 737.222 270.476C740.128 270.394 742.485 269.68 744.699 267.723C746.639 266.006 747.976 263.595 748.314 260.842C748.439 259.815 749.35 259.052 750.395 259.121C751.354 259.187 752.286 258.955 753.072 258.49C753.857 258.026 754.506 257.324 754.907 256.455C755.305 255.589 755.415 254.64 755.259 253.739C755.107 252.851 754.695 252.012 754.051 251.34C753.742 251.045 753.527 250.648 753.464 250.192C753.316 249.119 754.066 248.128 755.139 247.979C756.642 247.771 758.044 247.199 759.233 246.343C760.422 245.487 761.408 244.338 762.081 242.982C762.756 241.622 763.074 240.138 763.037 238.67C763.026 238.184 762.973 237.699 762.883 237.219C761.955 238.046 760.927 238.741 759.827 239.288C757.693 240.35 755.28 240.865 752.812 240.727C751.731 240.667 750.901 239.741 750.961 238.659C751.02 237.578 751.947 236.749 753.028 236.808C754.798 236.907 756.536 236.535 758.076 235.769C759.586 235.018 760.906 233.891 761.884 232.467C762.897 230.942 763.485 229.334 763.618 227.501C763.741 225.78 763.426 224.031 762.663 222.436C762.411 221.904 762.398 221.264 762.686 220.7C763.94 218.256 764.333 215.543 763.928 212.961C763.525 210.39 762.318 207.934 760.374 205.99C758.43 204.046 755.975 202.84 753.404 202.437C750.821 202.032 748.108 202.425 745.665 203.678C744.702 204.169 743.521 203.787 743.03 202.825C742.539 201.862 742.921 200.681 743.884 200.19C745.89 199.16 748.038 198.574 750.192 198.412C750.732 197.517 750.987 196.484 750.944 195.455C750.897 194.325 750.482 193.197 749.688 192.268C748.759 191.18 747.471 190.564 746.14 190.449C744.81 190.336 743.438 190.723 742.336 191.634C742.118 191.81 741.863 191.944 741.575 192.019C740.527 192.289 739.457 191.66 739.186 190.612C738.855 189.339 738.201 188.194 737.316 187.272C736.43 186.348 735.31 185.644 734.048 185.257C732.792 184.873 731.47 184.828 730.215 185.096C729.238 185.305 728.302 185.707 727.467 186.285V199.787C728.9 198.527 730.625 197.584 732.535 197.066C733.583 196.786 734.66 197.408 734.94 198.456C735.22 199.503 734.598 200.581 733.55 200.861C732.056 201.265 730.72 202.057 729.656 203.121C728.651 204.127 727.888 205.378 727.467 206.772V224.315C728.9 223.055 730.627 222.111 732.535 221.595ZM736.749 240.831C738.56 241.025 740.293 241.601 741.843 242.495C744.073 243.781 745.917 245.723 747.067 248.137C747.534 249.116 747.117 250.29 746.138 250.757C745.159 251.224 743.985 250.807 743.518 249.828C742.711 248.133 741.431 246.778 739.892 245.891C738.841 245.285 737.661 244.891 736.427 244.747C736.463 245.865 736.609 246.99 736.867 248.101C737.113 249.157 736.456 250.213 735.4 250.46C734.345 250.706 733.288 250.048 733.042 248.993C732.25 245.592 732.313 242.075 733.21 238.713C734.095 235.412 735.789 232.316 738.209 229.729C738.947 228.94 740.186 228.9 740.975 229.637C741.763 230.375 741.804 231.614 741.066 232.402C739.108 234.496 737.731 237.022 737.005 239.728C736.908 240.092 736.822 240.462 736.749 240.831ZM750.301 216.338C750.525 216.491 750.745 216.651 750.96 216.817C752.402 217.938 753.614 219.37 754.493 221.034C755.34 222.638 755.902 224.559 755.985 226.374C756.09 228.183 755.818 230.02 755.162 231.757C754.781 232.77 753.649 233.283 752.635 232.902C751.621 232.521 751.109 231.388 751.49 230.375C751.925 229.224 752.166 227.798 752.064 226.569C751.984 225.289 751.633 224.022 751.021 222.862C750.413 221.71 749.562 220.71 748.546 219.92C747.642 219.217 746.609 218.682 745.5 218.358C743.506 218.746 741.476 218.649 739.569 218.11C737.505 217.526 735.584 216.419 734.017 214.857C733.249 214.094 733.247 212.851 734.01 212.084C734.773 211.316 736.016 211.314 736.783 212.077C737.87 213.16 739.201 213.927 740.628 214.331C742.06 214.736 743.598 214.782 745.097 214.429C746.485 214.101 748.01 213.345 749.036 212.344C750.134 211.342 750.983 210.061 751.467 208.608C751.811 207.581 752.922 207.027 753.949 207.371C754.975 207.715 755.529 208.826 755.186 209.853C754.484 211.954 753.261 213.803 751.68 215.247L751.563 215.346C751.164 215.703 750.742 216.034 750.301 216.338ZM717.45 225.39C716.402 225.11 715.78 224.033 716.06 222.985C716.34 221.938 717.417 221.315 718.465 221.595C720.373 222.111 722.1 223.055 723.533 224.315V206.772C723.112 205.378 722.349 204.127 721.344 203.121C720.28 202.057 718.944 201.265 717.45 200.861C716.402 200.581 715.78 199.503 716.06 198.456C716.34 197.408 717.417 196.786 718.465 197.066C720.375 197.584 722.1 198.527 723.533 199.787V186.285C722.698 185.707 721.762 185.305 720.785 185.096C719.53 184.828 718.208 184.873 716.952 185.257C715.69 185.644 714.57 186.348 713.684 187.272C712.823 188.17 712.181 189.278 711.842 190.51C711.78 190.817 711.643 191.114 711.429 191.373C710.739 192.208 709.499 192.325 708.664 191.634C707.572 190.73 706.213 190.343 704.894 190.445C703.469 190.593 702.252 191.169 701.312 192.268C700.518 193.197 700.103 194.325 700.056 195.455C700.013 196.484 700.268 197.517 700.808 198.412C702.962 198.574 705.11 199.16 707.116 200.19C708.079 200.681 708.461 201.862 707.97 202.825C707.479 203.787 706.298 204.169 705.335 203.678C702.892 202.425 700.179 202.032 697.596 202.437C695.025 202.84 692.57 204.046 690.626 205.99C688.682 207.934 687.475 210.39 687.072 212.961C686.667 215.543 687.06 218.256 688.314 220.7C688.602 221.264 688.589 221.904 688.336 222.436C687.574 224.031 687.259 225.78 687.382 227.501C687.503 229.18 688.043 230.826 688.987 232.273C689.992 233.785 691.296 234.958 692.924 235.769C694.464 236.535 696.202 236.907 697.972 236.808C699.053 236.749 699.98 237.578 700.039 238.659C700.099 239.741 699.269 240.667 698.188 240.727C695.72 240.865 693.307 240.35 691.173 239.288C690.073 238.741 689.045 238.046 688.117 237.219C688.027 237.699 687.974 238.184 687.963 238.67C687.926 240.138 688.244 241.622 688.919 242.982C689.592 244.338 690.578 245.487 691.767 246.343C692.956 247.199 694.358 247.771 695.861 247.979C696.264 248.037 696.654 248.218 696.966 248.525C697.738 249.283 697.748 250.527 696.99 251.298C696.335 251.963 695.914 252.798 695.751 253.678C695.601 254.673 695.668 255.53 696.093 256.455C696.494 257.324 697.143 258.026 697.928 258.49C698.693 258.943 699.597 259.174 700.531 259.125C701.593 259.014 702.556 259.777 702.686 260.842C703.024 263.595 704.361 266.006 706.301 267.723C708.242 269.439 710.797 270.47 713.573 270.47C716.114 270.546 718.85 269.475 720.705 267.745C722.396 266.166 723.474 263.987 723.533 261.497C723.548 260.634 723.533 259.764 723.533 258.9C723.005 258.9 722.479 258.953 721.966 259.059C720.944 259.273 719.962 259.695 719.086 260.312C717.341 261.548 716.191 263.431 715.899 265.55C715.755 266.623 714.767 267.376 713.694 267.232C712.621 267.088 711.867 266.1 712.011 265.027C712.078 264.547 712.173 264.076 712.296 263.613C711.366 263.419 710.471 263.041 709.672 262.492C708.768 261.868 708.029 261.058 707.504 260.139C706.976 259.217 706.651 258.166 706.574 257.067C706.503 255.986 707.322 255.049 708.403 254.978C709.484 254.907 710.421 255.726 710.492 256.807C710.526 257.292 710.675 257.767 710.916 258.188C711.16 258.617 711.497 258.988 711.9 259.266C712.311 259.548 712.775 259.731 713.249 259.806C713.522 259.848 713.804 259.855 714.087 259.824C714.84 258.777 715.764 257.852 716.828 257.1C718.142 256.174 719.621 255.539 721.167 255.219C721.944 255.06 722.737 254.977 723.533 254.977V231.305C723.109 229.904 722.347 228.652 721.344 227.649C720.281 226.586 718.943 225.794 717.45 225.39ZM714.573 244.747C713.339 244.891 712.159 245.285 711.108 245.891C709.569 246.778 708.289 248.133 707.482 249.828C707.015 250.807 705.841 251.224 704.862 250.757C703.883 250.29 703.466 249.116 703.933 248.137C705.083 245.723 706.927 243.781 709.157 242.495C710.707 241.601 712.44 241.025 714.251 240.831C714.178 240.462 714.092 240.092 713.995 239.728C713.269 237.022 711.892 234.496 709.934 232.402C709.196 231.614 709.237 230.375 710.025 229.637C710.814 228.9 712.053 228.94 712.791 229.729C715.211 232.316 716.905 235.412 717.79 238.713C718.688 242.064 718.748 245.609 717.958 248.993C717.712 250.048 716.655 250.706 715.6 250.46C714.544 250.213 713.887 249.157 714.133 248.101C714.392 246.99 714.537 245.865 714.573 244.747ZM705.5 218.358C704.391 218.682 703.358 219.217 702.454 219.92C701.438 220.71 700.587 221.71 699.979 222.862C699.367 224.022 699.016 225.289 698.936 226.569C698.834 227.798 699.075 229.224 699.51 230.375C699.891 231.388 699.379 232.521 698.365 232.902C697.351 233.283 696.219 232.77 695.838 231.757C695.182 230.02 694.91 228.183 695.015 226.374C695.098 224.559 695.66 222.638 696.507 221.034C697.386 219.37 698.598 217.938 700.04 216.817C700.255 216.651 700.475 216.491 700.699 216.338C700.201 215.994 699.778 215.636 699.32 215.247C697.739 213.803 696.516 211.954 695.814 209.853C695.471 208.826 696.025 207.715 697.051 207.371C698.078 207.027 699.189 207.581 699.533 208.608C700.017 210.061 700.866 211.342 701.964 212.344C702.99 213.345 704.515 214.101 705.903 214.429C707.402 214.782 708.94 214.736 710.372 214.331C711.799 213.927 713.13 213.16 714.217 212.077C714.984 211.314 716.227 211.316 716.99 212.084C717.753 212.851 717.751 214.094 716.983 214.857C715.416 216.419 713.495 217.526 711.431 218.11C709.524 218.649 707.494 218.746 705.5 218.358Z" fill="#FFA800"/>
<path d="M512.035 153.329C512.107 152.411 511.981 151.489 511.666 150.625C511.351 149.76 510.854 148.973 510.209 148.316L501.977 140.084C502.409 138.688 502.63 137.236 502.634 135.775C502.634 135.351 502.465 134.943 502.165 134.643C501.864 134.343 501.457 134.174 501.032 134.174H485.368C485.496 133.837 485.641 133.517 485.753 133.165L490.045 132.556C490.427 132.502 490.777 132.312 491.03 132.021C491.283 131.729 491.422 131.357 491.422 130.971V124.564C491.422 124.178 491.283 123.805 491.03 123.514C490.777 123.223 490.427 123.033 490.045 122.979L485.753 122.37C485.463 121.466 485.099 120.587 484.664 119.743L487.274 116.268C487.507 115.96 487.621 115.578 487.595 115.192C487.568 114.806 487.403 114.443 487.13 114.17L482.598 109.637C482.324 109.364 481.961 109.199 481.576 109.173C481.19 109.146 480.808 109.26 480.499 109.493L477.024 112.104C476.18 111.669 475.302 111.304 474.397 111.015L473.789 106.722C473.735 106.34 473.545 105.991 473.253 105.737C472.962 105.484 472.589 105.345 472.203 105.345H465.797C465.411 105.345 465.038 105.484 464.747 105.737C464.455 105.991 464.265 106.34 464.211 106.722L463.603 111.015C462.698 111.304 461.82 111.669 460.976 112.104L457.5 109.493C457.192 109.26 456.81 109.146 456.424 109.173C456.039 109.199 455.676 109.364 455.402 109.637L450.87 114.17C450.597 114.443 450.432 114.806 450.405 115.192C450.379 115.578 450.493 115.96 450.726 116.268L453.336 119.743C452.901 120.587 452.537 121.466 452.247 122.37L447.955 122.979C447.573 123.033 447.223 123.223 446.97 123.514C446.717 123.805 446.578 124.178 446.578 124.564V130.971C446.578 131.357 446.717 131.729 446.97 132.021C447.223 132.312 447.573 132.502 447.955 132.556L452.247 133.165C452.359 133.517 452.504 133.837 452.632 134.174H436.968C436.543 134.174 436.136 134.343 435.835 134.643C435.535 134.943 435.366 135.351 435.366 135.775C435.37 137.236 435.591 138.688 436.023 140.084L427.791 148.316C427.146 148.973 426.649 149.76 426.334 150.625C426.019 151.489 425.893 152.411 425.965 153.329C425.059 153.259 424.148 153.381 423.292 153.687C422.437 153.993 421.655 154.477 421 155.107L423.258 157.381C423.867 156.797 424.677 156.469 425.521 156.466C426.365 156.463 427.178 156.785 427.791 157.365V157.381C428.09 157.676 428.328 158.028 428.49 158.415C428.652 158.803 428.736 159.219 428.736 159.639C428.736 160.06 428.652 160.476 428.49 160.863C428.328 161.251 428.09 161.603 427.791 161.898L430.065 164.172C430.66 163.576 431.131 162.87 431.453 162.092C431.774 161.314 431.94 160.481 431.939 159.639C431.931 159.494 431.915 159.35 431.891 159.207C432.034 159.231 432.178 159.247 432.323 159.255C433.165 159.256 433.998 159.09 434.776 158.769C435.554 158.447 436.26 157.976 436.856 157.381L444.912 149.325C446.136 149.762 447.412 150.037 448.708 150.142L456.956 169.409H446.578C445.304 169.413 444.085 169.92 443.184 170.821C442.284 171.721 441.777 172.941 441.773 174.214V193.433C441.777 194.706 442.284 195.926 443.184 196.826C444.085 197.727 445.304 198.234 446.578 198.238H459.39C460.664 198.234 461.883 197.727 462.784 196.826C463.684 195.926 464.191 194.706 464.195 193.433V182.222H473.805V193.433C473.809 194.706 474.316 195.926 475.216 196.826C476.117 197.727 477.336 198.234 478.61 198.238H491.422C492.696 198.234 493.915 197.727 494.816 196.826C495.716 195.926 496.223 194.706 496.227 193.433V174.214C496.223 172.941 495.716 171.721 494.816 170.821C493.915 169.92 492.696 169.413 491.422 169.409H481.044L489.292 150.142C490.588 150.037 491.864 149.762 493.088 149.325L501.144 157.381C501.74 157.976 502.446 158.447 503.224 158.769C504.002 159.09 504.835 159.256 505.677 159.255C505.822 159.247 505.966 159.231 506.109 159.207C506.085 159.35 506.069 159.494 506.061 159.639C506.06 160.481 506.226 161.314 506.547 162.092C506.869 162.87 507.34 163.576 507.935 164.172L510.209 161.898C509.91 161.603 509.672 161.251 509.51 160.863C509.348 160.476 509.264 160.06 509.264 159.639C509.264 159.219 509.348 158.803 509.51 158.415C509.672 158.028 509.91 157.676 510.209 157.381V157.365C510.822 156.785 511.635 156.463 512.479 156.466C513.323 156.469 514.133 156.797 514.742 157.381L517 155.107C516.345 154.477 515.563 153.993 514.708 153.687C513.852 153.381 512.941 153.259 512.035 153.329ZM434.582 155.107C433.976 155.692 433.166 156.02 432.323 156.02C431.481 156.02 430.671 155.692 430.065 155.107C429.766 154.812 429.528 154.46 429.366 154.072C429.204 153.685 429.12 153.269 429.12 152.849C429.12 152.428 429.204 152.012 429.366 151.625C429.528 151.237 429.766 150.885 430.065 150.59L437.448 143.191C438.561 145.047 440.077 146.629 441.885 147.819L434.582 155.107ZM448.179 146.875C445.785 146.524 443.568 145.41 441.857 143.699C440.146 141.988 439.032 139.771 438.682 137.377H448.179V146.875ZM449.781 129.577V125.958L453.721 125.397C454.034 125.352 454.327 125.215 454.564 125.004C454.8 124.794 454.969 124.518 455.05 124.212C455.382 122.881 455.911 121.607 456.62 120.432C456.781 120.16 456.858 119.845 456.841 119.529C456.824 119.212 456.714 118.908 456.524 118.654L454.121 115.451L456.684 112.889L459.887 115.291C460.14 115.481 460.445 115.592 460.761 115.609C461.078 115.626 461.392 115.549 461.665 115.387C462.839 114.679 464.113 114.15 465.444 113.817C465.751 113.737 466.026 113.567 466.237 113.331C466.448 113.095 466.584 112.802 466.63 112.488L467.19 108.548H470.81L471.37 112.488C471.416 112.802 471.552 113.095 471.763 113.331C471.974 113.567 472.249 113.737 472.556 113.817C473.887 114.15 475.161 114.679 476.335 115.387C476.608 115.549 476.922 115.626 477.239 115.609C477.555 115.592 477.86 115.481 478.113 115.291L481.316 112.889L483.879 115.451L481.476 118.654C481.286 118.908 481.176 119.212 481.159 119.529C481.142 119.845 481.219 120.16 481.38 120.432C482.089 121.607 482.618 122.881 482.95 124.212C483.031 124.518 483.2 124.794 483.436 125.004C483.673 125.215 483.966 125.352 484.279 125.397L488.219 125.958V129.577L484.279 130.138C483.963 130.183 483.668 130.321 483.431 130.535C483.194 130.749 483.027 131.029 482.95 131.339C482.69 132.321 482.325 133.271 481.861 134.174H476.143C477.386 132.793 478.201 131.082 478.492 129.247C478.782 127.412 478.534 125.533 477.778 123.836C477.022 122.139 475.791 120.698 474.233 119.686C472.675 118.675 470.858 118.136 469 118.136C467.142 118.136 465.325 118.675 463.767 119.686C462.209 120.698 460.978 122.139 460.222 123.836C459.466 125.533 459.218 127.412 459.508 129.247C459.799 131.082 460.614 132.793 461.857 134.174H456.139C455.675 133.271 455.309 132.321 455.05 131.339C454.973 131.029 454.806 130.749 454.569 130.535C454.332 130.321 454.037 130.183 453.721 130.138L449.781 129.577ZM475.406 127.767C475.406 129.034 475.031 130.273 474.327 131.327C473.623 132.38 472.622 133.201 471.452 133.686C470.281 134.171 468.993 134.298 467.75 134.051C466.507 133.804 465.366 133.193 464.47 132.297C463.574 131.401 462.964 130.26 462.717 129.017C462.469 127.775 462.596 126.486 463.081 125.316C463.566 124.145 464.387 123.145 465.441 122.441C466.494 121.737 467.733 121.361 469 121.361C470.699 121.361 472.329 122.036 473.53 123.237C474.731 124.439 475.406 126.068 475.406 127.767ZM451.382 195.035H446.578C446.153 195.035 445.745 194.866 445.445 194.566C445.145 194.265 444.976 193.858 444.976 193.433V191.831H448.179V188.628H444.976V185.425H448.179V182.222H444.976V179.019H448.179V175.815H444.976V174.214C444.976 173.789 445.145 173.382 445.445 173.081C445.745 172.781 446.153 172.612 446.578 172.612H451.382V195.035ZM460.992 175.815H457.789V179.019H460.992V182.222H457.789V185.425H460.992V188.628H457.789V191.831H460.992V193.433C460.992 193.858 460.823 194.265 460.523 194.566C460.223 194.866 459.815 195.035 459.39 195.035H454.586V172.612H460.992V175.815ZM473.805 179.019H464.195V172.612H473.805V179.019ZM486.618 172.612H491.422C491.847 172.612 492.255 172.781 492.555 173.081C492.855 173.382 493.024 173.789 493.024 174.214V175.815H489.821V179.019H493.024V182.222H489.821V185.425H493.024V188.628H489.821V191.831H493.024V193.433C493.024 193.858 492.855 194.265 492.555 194.566C492.255 194.866 491.847 195.035 491.422 195.035H486.618V172.612ZM483.414 172.612V195.035H478.61C478.185 195.035 477.777 194.866 477.477 194.566C477.177 194.265 477.008 193.858 477.008 193.433V191.831H480.211V188.628H477.008V185.425H480.211V182.222H477.008V179.019H480.211V175.815H477.008V172.612H483.414ZM486.618 148.252L477.553 169.409H460.447L451.382 148.252V137.377H486.618V148.252ZM489.821 146.875V137.377H499.318C498.968 139.771 497.854 141.988 496.143 143.699C494.432 145.41 492.215 146.524 489.821 146.875ZM507.935 155.107C507.329 155.692 506.519 156.02 505.677 156.02C504.834 156.02 504.024 155.692 503.418 155.107L496.115 147.819C497.923 146.629 499.439 145.047 500.552 143.191L507.935 150.59C508.232 150.887 508.467 151.239 508.628 151.626C508.789 152.014 508.872 152.429 508.872 152.849C508.872 153.268 508.789 153.683 508.628 154.071C508.467 154.458 508.232 154.81 507.935 155.107Z" fill="#4585E5"/>
<path d="M480.211 140.58H457.789C457.364 140.58 456.956 140.749 456.656 141.049C456.356 141.35 456.187 141.757 456.187 142.182V151.791C456.187 152.216 456.356 152.624 456.656 152.924C456.956 153.224 457.364 153.393 457.789 153.393H462.593V161.401C462.593 161.826 462.762 162.233 463.063 162.534C463.363 162.834 463.77 163.003 464.195 163.003H473.805C474.229 163.003 474.637 162.834 474.937 162.534C475.237 162.233 475.406 161.826 475.406 161.401V153.393H480.211C480.636 153.393 481.043 153.224 481.344 152.924C481.644 152.624 481.813 152.216 481.813 151.791V142.182C481.813 141.757 481.644 141.35 481.344 141.049C481.043 140.749 480.636 140.58 480.211 140.58ZM472.203 159.799H465.797V153.393H472.203V159.799ZM478.609 150.19H459.39V143.783H478.609V150.19Z" fill="#4585E5"/>
<path d="M455.973 102.001L453.199 103.603L454.801 106.377L457.575 104.775L455.973 102.001Z" fill="#4585E5"/>
<path d="M444.834 111.966L443.232 114.74L446.006 116.342L447.608 113.568L444.834 111.966Z" fill="#4585E5"/>
<path d="M443.374 126.166H440.171V129.369H443.374V126.166Z" fill="#4585E5"/>
<path d="M497.829 126.166H494.625V129.369H497.829V126.166Z" fill="#4585E5"/>
<path d="M493.165 111.966L490.391 113.568L491.992 116.342L494.766 114.741L493.165 111.966Z" fill="#4585E5"/>
<path d="M482.027 102L480.426 104.774L483.2 106.376L484.801 103.601L482.027 102Z" fill="#4585E5"/>
<path d="M283.824 289.529H280.059C279.973 289.529 279.891 289.543 279.807 289.548C279.294 286.523 277.971 283.694 275.978 281.361C273.986 279.028 271.398 277.279 268.491 276.3L258.037 270.232C253.411 267.463 248.121 266 242.73 266H215.741C210.34 266 205.04 267.468 200.409 270.247C200.363 270.274 200.317 270.303 200.272 270.333L192.087 275.735C188.713 276.405 185.622 278.086 183.225 280.552C180.828 283.019 179.237 286.157 178.664 289.548C178.58 289.543 178.497 289.529 178.412 289.529H174.647C173.15 289.531 171.715 290.127 170.656 291.185C169.597 292.244 169.002 293.679 169 295.176V310.235C169.002 311.732 169.597 313.168 170.656 314.226C171.715 315.285 173.15 315.881 174.647 315.882H178.412C178.497 315.882 178.58 315.869 178.664 315.863C179.329 319.811 181.37 323.395 184.424 325.983C187.479 328.57 191.35 329.993 195.353 330H218.611C219.389 330 220.149 329.759 220.785 329.309C221.42 328.859 221.901 328.224 222.16 327.49L223.934 322.471H234.537L236.31 327.49C236.57 328.224 237.05 328.859 237.686 329.309C238.322 329.759 239.081 330 239.86 330H263.118C267.121 329.993 270.992 328.57 274.046 325.983C277.101 323.395 279.141 319.811 279.807 315.863C279.891 315.869 279.973 315.882 280.059 315.882H283.824C285.321 315.881 286.756 315.285 287.815 314.226C288.873 313.168 289.469 311.732 289.471 310.235V295.176C289.469 293.679 288.873 292.244 287.815 291.185C286.756 290.127 285.321 289.531 283.824 289.529ZM178.412 312.118H174.647C174.148 312.118 173.669 311.919 173.316 311.566C172.963 311.213 172.765 310.735 172.765 310.235V295.176C172.765 294.677 172.963 294.198 173.316 293.845C173.669 293.492 174.148 293.294 174.647 293.294H178.412V312.118ZM202.346 273.475C206.392 271.047 211.022 269.765 215.741 269.765H242.73C247.449 269.765 252.079 271.047 256.125 273.475L259.462 275.412H199.411L202.346 273.475ZM276.294 313.059C276.294 316.553 274.906 319.905 272.435 322.376C269.964 324.847 266.612 326.235 263.118 326.235H239.86L237.199 318.706H221.271L218.611 326.235H195.353C191.858 326.235 188.507 324.847 186.036 322.376C183.565 319.905 182.176 316.553 182.176 313.059V292.353C182.176 288.858 183.565 285.507 186.036 283.036C188.507 280.565 191.858 279.176 195.353 279.176H263.118C266.612 279.176 269.964 280.565 272.435 283.036C274.906 285.507 276.294 288.858 276.294 292.353V313.059ZM285.706 310.235C285.706 310.735 285.508 311.213 285.155 311.566C284.802 311.919 284.323 312.118 283.824 312.118H280.059V293.294H283.824C284.323 293.294 284.802 293.492 285.155 293.845C285.508 294.198 285.706 294.677 285.706 295.176V310.235Z" fill="#DA4BD4"/>
<path d="M581.219 833.885C581.219 833.854 581.219 829.715 581.219 829.683H585.414C589.463 829.683 592.756 826.39 592.756 822.341C592.756 818.293 589.463 815 585.414 815C575.373 815 532.599 815 526.683 815C522.635 815 519.341 818.293 519.341 822.341C519.341 826.39 522.635 829.683 526.683 829.683H530.878V833.878C530.886 834.157 530.922 834.384 531.026 834.65C531.179 835.035 531.438 835.358 531.756 835.585L545.561 845.445V850.659C545.561 851.319 545.872 851.94 546.4 852.337L553.951 858V870.423C538.258 879.487 539.408 878.813 539.219 878.954C538.701 879.361 538.413 879.984 538.413 880.606V898.549C538.413 899.299 538.813 899.991 539.462 900.366C556.082 909.961 555.061 909.385 555.26 909.464C555.838 909.7 556.516 909.666 557.081 909.346C557.179 909.291 569.834 901.984 572.638 900.366C573.287 899.991 573.687 899.299 573.687 898.549C573.68 879.575 573.703 880.594 573.668 880.331C573.651 880.191 573.605 880.008 573.54 879.841C573.385 879.451 573.184 879.207 572.868 878.943C572.64 878.768 573.371 879.221 558.146 870.423V858L565.697 852.336C566.226 851.94 566.536 851.318 566.536 850.658V845.445C581.101 835.027 580.368 835.598 580.603 835.363C580.993 834.973 581.217 834.435 581.219 833.885ZM588.561 822.341C588.561 824.076 587.149 825.488 585.414 825.488H581.219V819.195H585.414C587.149 819.195 588.561 820.607 588.561 822.341ZM577.024 831.78H535.073C535.073 830.676 535.073 822.369 535.073 819.195H577.024C577.024 821.104 577.024 828.472 577.024 831.78ZM526.683 825.488C524.948 825.488 523.536 824.076 523.536 822.341C523.536 820.607 524.948 819.195 526.683 819.195H530.878V825.488H526.683ZM556.049 887.156L544.705 880.606L556.049 874.056L567.394 880.606L556.049 887.156ZM542.608 884.239L553.951 890.789V903.888L542.608 897.338V884.239ZM558.146 903.888V890.789L569.491 884.239V897.338L558.146 903.888ZM562.341 849.61L556.049 854.329L549.756 849.61V846.463H562.341V849.61ZM563.767 842.268H548.331L539.521 835.976H572.576L563.767 842.268Z" fill="#FFEC3E"/>
<path d="M541.366 825.488H564.439C565.597 825.488 566.537 824.549 566.537 823.39C566.537 822.232 565.597 821.293 564.439 821.293H541.366C540.207 821.293 539.268 822.232 539.268 823.39C539.268 824.549 540.207 825.488 541.366 825.488Z" fill="#FFEC3E"/>
<path d="M570.732 825.488C571.89 825.488 572.829 824.549 572.829 823.39C572.829 822.232 571.89 821.293 570.732 821.293C569.573 821.293 568.634 822.232 568.634 823.39C568.634 824.549 569.573 825.488 570.732 825.488Z" fill="#FFEC3E"/>
<path d="M595.902 840.171C597.061 840.171 598 839.232 598 838.073C598 836.915 597.061 835.976 595.902 835.976C594.744 835.976 593.805 836.915 593.805 838.073C593.805 839.232 594.744 840.171 595.902 840.171Z" fill="#FFEC3E"/>
<path d="M572.829 863.244C573.988 863.244 574.927 862.305 574.927 861.146C574.927 859.988 573.988 859.049 572.829 859.049C571.671 859.049 570.732 859.988 570.732 861.146C570.732 862.305 571.671 863.244 572.829 863.244Z" fill="#FFEC3E"/>
<path d="M593.805 886.317C594.963 886.317 595.902 885.378 595.902 884.22C595.902 883.061 594.963 882.122 593.805 882.122C592.646 882.122 591.707 883.061 591.707 884.22C591.707 885.378 592.646 886.317 593.805 886.317Z" fill="#FFEC3E"/>
<path d="M526.683 892.61C527.841 892.61 528.781 891.671 528.781 890.512C528.781 889.354 527.841 888.415 526.683 888.415C525.525 888.415 524.585 889.354 524.585 890.512C524.585 891.671 525.525 892.61 526.683 892.61Z" fill="#FFEC3E"/>
<path d="M535.073 854.854C536.232 854.854 537.171 853.915 537.171 852.756C537.171 851.598 536.232 850.659 535.073 850.659C533.915 850.659 532.976 851.598 532.976 852.756C532.976 853.915 533.915 854.854 535.073 854.854Z" fill="#FFEC3E"/>
<path d="M514.098 838.073C515.256 838.073 516.195 837.134 516.195 835.976C516.195 834.817 515.256 833.878 514.098 833.878C512.939 833.878 512 834.817 512 835.976C512 837.134 512.939 838.073 514.098 838.073Z" fill="#FFEC3E"/>
<path d="M522.488 861.146C519.018 861.146 516.195 863.969 516.195 867.439C516.195 870.909 519.018 873.731 522.488 873.731C525.958 873.731 528.78 870.909 528.78 867.439C528.78 863.969 525.958 861.146 522.488 861.146ZM522.488 869.537C521.331 869.537 520.39 868.596 520.39 867.439C520.39 866.282 521.331 865.341 522.488 865.341C523.644 865.341 524.585 866.282 524.585 867.439C524.585 868.596 523.644 869.537 522.488 869.537Z" fill="#FFEC3E"/>
<path d="M589.61 846.463C584.983 846.463 581.219 850.227 581.219 854.854C581.219 859.48 584.983 863.244 589.61 863.244C594.236 863.244 598 859.48 598 854.854C598 850.227 594.236 846.463 589.61 846.463ZM589.61 859.049C587.297 859.049 585.415 857.167 585.415 854.854C585.415 852.54 587.297 850.659 589.61 850.659C591.923 850.659 593.805 852.54 593.805 854.854C593.805 857.167 591.923 859.049 589.61 859.049Z" fill="#FFEC3E"/>
<path d="M134.016 513.007H136.993V504.01C136.993 502.341 138.335 501 140.003 501C141.672 501 143.013 502.341 143.013 504.01V513.007H149V504.01C149 502.341 150.341 501 152.01 501C153.646 501 154.987 502.341 154.987 504.01V513.007H161.007V504.01C161.007 502.341 162.348 501 163.984 501C165.652 501 166.993 502.341 166.993 504.01V513.007H173.013V504.01C173.013 502.341 174.354 501 175.99 501C177.659 501 179 502.341 179 504.01V513.007H184.987V504.01C184.987 502.341 186.328 501 187.997 501C189.665 501 191.007 502.341 191.007 504.01V513.007H193.984C195.652 513.007 196.993 514.348 196.993 515.984V518.993H205.99C207.659 518.993 209 520.335 209 522.003C209 523.672 207.659 525.013 205.99 525.013H196.993V531H205.99C207.659 531 209 532.341 209 534.01C209 535.646 207.659 536.987 205.99 536.987H196.993V543.007H205.99C207.659 543.007 209 544.348 209 545.984C209 547.652 207.659 548.993 205.99 548.993H196.993V555.013H205.99C207.659 555.013 209 556.354 209 557.99C209 559.659 207.659 561 205.99 561H196.993V566.987H205.99C207.659 566.987 209 568.328 209 569.997C209 571.665 207.659 573.007 205.99 573.007H196.993V575.984C196.993 577.652 195.652 578.993 193.984 578.993H191.007V587.99C191.007 589.659 189.665 591 187.997 591C186.328 591 184.987 589.659 184.987 587.99V578.993H179V587.99C179 589.659 177.659 591 175.99 591C174.354 591 173.013 589.659 173.013 587.99V578.993H166.993V587.99C166.993 589.659 165.652 591 163.984 591C162.348 591 161.007 589.659 161.007 587.99V578.993H154.987V587.99C154.987 589.659 153.646 591 152.01 591C150.341 591 149 589.659 149 587.99V578.993H143.013V587.99C143.013 589.659 141.672 591 140.003 591C138.335 591 136.993 589.659 136.993 587.99V578.993H134.016C132.348 578.993 131.007 577.652 131.007 575.984V573.007H122.01C120.341 573.007 119 571.665 119 569.997C119 568.328 120.341 566.987 122.01 566.987H131.007V561H122.01C120.341 561 119 559.659 119 557.99C119 556.354 120.341 555.013 122.01 555.013H131.007V548.993H122.01C120.341 548.993 119 547.652 119 545.984C119 544.348 120.341 543.007 122.01 543.007H131.007V536.987H122.01C120.341 536.987 119 535.646 119 534.01C119 532.341 120.341 531 122.01 531H131.007V525.013H122.01C120.341 525.013 119 523.672 119 522.003C119 520.335 120.341 518.993 122.01 518.993H131.007V515.984C131.007 514.348 132.348 513.007 134.016 513.007ZM149 527.99H179C180.668 527.99 182.01 529.332 182.01 531V561C182.01 562.668 180.668 564.01 179 564.01H149C147.332 564.01 145.99 562.668 145.99 561V531C145.99 529.332 147.332 527.99 149 527.99ZM175.99 534.01H152.01V557.99H175.99V534.01ZM191.007 518.993H187.997H175.99H163.984H152.01H140.003H136.993V573.007H140.003H152.01H163.984H175.99H187.997H191.007V569.997V557.99V545.984V534.01V522.003V518.993Z" fill="#FF3E3E"/>
<path d="M805.439 699.349C805.251 699.349 805.065 699.318 804.887 699.257L779.169 690.568C774.531 688.899 772.082 683.825 773.66 679.155C775.238 674.485 780.263 671.937 784.963 673.424L810.679 682.115C811.309 682.272 811.797 682.77 811.942 683.403C812.086 684.035 811.863 684.696 811.364 685.111C810.865 685.526 810.175 685.626 809.579 685.368L783.863 676.677C780.926 675.684 777.739 677.261 776.747 680.198C775.754 683.136 777.331 686.322 780.268 687.315L805.984 696.007C806.768 696.287 807.24 697.088 807.105 697.909C806.969 698.731 806.266 699.338 805.433 699.352L805.439 699.349Z" fill="#3EFFD1"/>
<path d="M780.711 710.266C780.158 710.264 779.64 709.997 779.317 709.547C778.995 709.098 778.908 708.522 779.083 707.997L787.14 684.165C788.127 681.229 786.553 678.047 783.619 677.05C780.683 676.059 777.498 677.635 776.504 680.57L768.298 704.853C767.942 705.677 767.014 706.089 766.165 705.802C765.315 705.515 764.828 704.624 765.045 703.753L773.251 679.471C774.912 674.819 779.995 672.358 784.674 673.94C789.353 675.522 791.899 680.563 790.396 685.268L781.782 710.872C781.546 711.581 781.429 710.266 780.711 710.266Z" fill="#3EFFD1"/>
<path d="M769.665 730.207C764.077 730.208 759.039 726.843 756.9 721.681C754.761 716.519 755.943 710.576 759.894 706.625C763.845 702.674 769.788 701.492 774.95 703.631C780.112 705.77 783.477 710.808 783.476 716.396C783.465 724.019 777.288 730.196 769.665 730.207ZM769.665 706.016C765.467 706.011 761.68 708.536 760.07 712.413C758.46 716.29 759.344 720.755 762.311 723.726C765.277 726.696 769.741 727.587 773.62 725.982C777.499 724.377 780.029 720.594 780.03 716.396C780.024 710.672 775.389 706.03 769.665 706.016Z" fill="#3EFFD1"/>
<path d="M769.665 723.899C766.629 723.902 763.891 722.076 762.727 719.273C761.563 716.47 762.203 713.241 764.348 711.094C766.493 708.946 769.721 708.303 772.525 709.463C775.33 710.624 777.159 713.361 777.159 716.396C777.154 720.534 773.803 723.889 769.665 723.899ZM769.665 712.327C767.418 712.327 765.596 714.149 765.596 716.396C765.596 718.643 767.418 720.465 769.665 720.465C771.912 720.465 773.733 718.643 773.733 716.396C773.732 714.149 771.912 712.328 769.665 712.324V712.327Z" fill="#3EFFD1"/>
<path d="M781.753 750.387H757.568C756.616 750.387 755.845 749.615 755.845 748.664V718.116C755.845 717.164 756.616 716.393 757.568 716.393C758.519 716.393 759.291 717.164 759.291 718.116V746.967H780.03V718.116C780.03 717.164 780.802 716.393 781.753 716.393C782.704 716.393 783.476 717.164 783.476 718.116V748.678C783.468 749.624 782.699 750.387 781.753 750.387Z" fill="#3EFFD1"/>
<path d="M792.595 757.852H746.723C745.771 757.852 745 757.081 745 756.129V748.664C745 747.712 745.771 746.941 746.723 746.941H792.595C793.547 746.941 794.318 747.712 794.318 748.664V756.129C794.318 756.586 794.137 757.025 793.813 757.348C793.49 757.671 793.052 757.852 792.595 757.852ZM748.446 754.415H790.878V750.395H748.446V754.415Z" fill="#3EFFD1"/>
<path d="M812.158 706.76C811.97 706.76 811.784 706.729 811.606 706.668L804.632 704.311C803.736 704.004 803.255 703.032 803.555 702.134L811.368 679.02C811.674 678.124 812.646 677.643 813.545 677.943L820.516 680.3C821.412 680.607 821.893 681.579 821.593 682.477L813.78 705.591C813.544 706.287 812.892 706.756 812.158 706.76ZM807.36 701.609L811.092 702.866L817.806 683.005L814.073 681.748L807.36 701.609Z" fill="#3EFFD1"/>
<path d="M838.29 697.767C837.766 697.766 837.272 697.527 836.946 697.118L829.417 687.642L824.74 690.514C824.294 690.785 823.749 690.84 823.258 690.663L819.261 689.227C818.363 688.904 817.897 687.913 818.22 687.015C818.544 686.117 819.534 685.651 820.433 685.974L823.652 687.143L828.92 683.924C829.66 683.475 830.619 683.644 831.16 684.32L839.633 694.973C840.038 695.49 840.114 696.192 839.829 696.784C839.543 697.376 838.946 697.753 838.29 697.758V697.767Z" fill="#3EFFD1"/>
<path d="M821.34 710.478C820.604 710.476 819.952 710.006 819.715 709.31L817.737 703.463L814.518 702.295C813.695 701.925 813.297 700.984 813.604 700.136C813.912 699.288 814.821 698.821 815.689 699.065L819.686 700.5C820.177 700.679 820.561 701.071 820.729 701.566L822.486 706.757L834.333 704.319C835.226 704.205 836.057 704.799 836.238 705.681C836.419 706.563 835.891 707.436 835.025 707.684L821.693 710.429C821.578 710.458 821.459 710.474 821.34 710.478Z" fill="#3EFFD1"/>
<path d="M812.365 452.989C811.053 452.149 810.671 450.399 811.516 449.087C812.357 447.775 814.106 447.393 815.418 448.238L834.318 460.442H842.535V458.14C842.535 456.144 843.355 454.318 844.675 452.998L844.692 452.981C846.017 451.66 847.839 450.845 849.83 450.845H878.569C880.565 450.845 882.395 451.669 883.72 452.994C885.045 454.306 885.868 456.132 885.868 458.144V460.446H894.085L912.985 448.242C914.297 447.401 916.047 447.779 916.887 449.091C917.728 450.403 917.35 452.153 916.038 452.994L896.586 465.55C896.115 465.894 895.537 466.102 894.909 466.102H885.868V468.403C885.868 470.412 885.045 472.242 883.728 473.558C883.011 474.276 882.144 474.849 881.176 475.219V476.841H913.125L918.977 469.308C919.936 468.076 921.711 467.851 922.947 468.811C924.178 469.771 924.403 471.546 923.444 472.781L916.743 481.41C916.187 482.127 915.35 482.501 914.51 482.501L881.176 482.505V485.397L890.756 495.919C891.282 496.433 891.614 497.155 891.614 497.949V507.163C891.614 508.726 890.348 509.996 888.781 509.996L888.548 509.987L888.314 509.996H878.994C877.431 509.996 876.161 508.73 876.161 507.163C876.161 505.601 877.427 504.331 878.994 504.331H885.953V499.036L877.104 489.316H873.206C872.858 491.163 871.953 492.82 870.671 494.102C869.019 495.766 866.73 496.79 864.204 496.79C861.682 496.79 859.397 495.762 857.741 494.11C856.45 492.828 855.55 491.168 855.202 489.316H851.325L842.705 499.019V504.335H849.193C850.756 504.335 852.025 505.601 852.025 507.168C852.025 508.73 850.76 510 849.193 510H839.873C838.31 510 837.04 508.735 837.04 507.168V497.953C837.04 497.18 837.35 496.48 837.851 495.97L847.223 485.423V482.514H813.89C813.049 482.51 812.212 482.136 811.656 481.418L804.955 472.79C803.996 471.558 804.221 469.779 805.452 468.82C806.684 467.86 808.463 468.085 809.423 469.316L815.274 476.849H847.223V475.223C846.259 474.854 845.393 474.28 844.675 473.563L844.488 473.359C843.274 472.055 842.531 470.306 842.531 468.408V466.106H833.49C832.968 466.102 832.437 465.958 831.966 465.652L812.365 452.998V452.989ZM927.563 460.437C929.125 460.437 930.395 461.703 930.395 463.27C930.395 464.832 929.13 466.102 927.563 466.102H913.601C912.038 466.102 910.769 464.837 910.769 463.27C910.769 461.707 912.034 460.437 913.601 460.437H927.563ZM800.832 466.098C799.27 466.098 798 464.832 798 463.265C798 461.703 799.265 460.433 800.832 460.433H814.794C816.357 460.433 817.626 461.699 817.626 463.265C817.626 464.828 816.361 466.098 814.794 466.098H800.832ZM853.669 466.098C852.106 466.098 850.837 464.832 850.837 463.265C850.837 461.703 852.102 460.433 853.669 460.433H856.064C857.626 460.433 858.896 461.699 858.896 463.265C858.896 464.828 857.631 466.098 856.064 466.098H853.669ZM872.327 466.098C870.764 466.098 869.495 464.832 869.495 463.265C869.495 461.703 870.76 460.433 872.327 460.433H874.722C876.284 460.433 877.554 461.699 877.554 463.265C877.554 464.828 876.289 466.098 874.722 466.098H872.327ZM862.998 466.098C861.435 466.098 860.166 464.832 860.166 463.265C860.166 461.703 861.431 460.433 862.998 460.433H865.393C866.955 460.433 868.225 461.699 868.225 463.265C868.225 464.828 866.96 466.098 865.393 466.098H862.998ZM875.507 475.699H852.879V479.673V483.652H855.945C856.395 482.722 856.998 481.877 857.72 481.155L857.915 480.977C859.558 479.427 861.771 478.471 864.195 478.471C866.722 478.471 869.015 479.499 870.671 481.155C871.393 481.877 871.996 482.722 872.446 483.652H875.507V479.673V475.703V475.699ZM866.667 485.155C866.034 484.522 865.159 484.132 864.195 484.132C863.282 484.132 862.45 484.476 861.834 485.036L861.724 485.155C861.091 485.788 860.701 486.662 860.701 487.626C860.701 488.594 861.091 489.469 861.724 490.102C862.348 490.735 863.227 491.125 864.2 491.125C865.163 491.125 866.038 490.73 866.671 490.102C867.308 489.478 867.694 488.603 867.694 487.631C867.694 486.667 867.299 485.792 866.671 485.159L866.667 485.155ZM878.565 456.501H849.826C849.372 456.501 848.96 456.684 848.671 456.972C848.369 457.274 848.187 457.686 848.187 458.136V463.27V468.403C848.187 468.811 848.331 469.18 848.573 469.465L848.671 469.558C848.968 469.856 849.38 470.042 849.826 470.042H850.051H878.34H878.565C879.011 470.042 879.422 469.856 879.72 469.558C880.017 469.261 880.204 468.849 880.204 468.403V463.27V458.136C880.204 457.69 880.017 457.278 879.72 456.981C879.431 456.679 879.019 456.497 878.565 456.497V456.501ZM801.962 445.665C800.399 445.665 799.13 444.399 799.13 442.832C799.13 441.27 800.395 440 801.962 440H825.813C827.376 440 828.645 441.265 828.645 442.832C828.645 444.395 827.38 445.665 825.813 445.665H801.962ZM902.573 445.665C901.011 445.665 899.741 444.399 899.741 442.832C899.741 441.27 901.006 440 902.573 440H926.425C927.987 440 929.257 441.265 929.257 442.832C929.257 444.395 927.992 445.665 926.425 445.665H902.573Z" fill="#3EFF51"/>
<path d="M342 768.578C342 765.773 340.886 763.082 338.902 761.098C336.918 759.114 334.227 758 331.422 758H276.578C275.189 758 273.813 758.274 272.53 758.805C271.247 759.337 270.081 760.116 269.098 761.098C267.114 763.082 266 765.773 266 768.578V817.726C266 820.531 267.114 823.222 269.098 825.206C270.081 826.188 271.247 826.967 272.53 827.499C273.813 828.03 275.189 828.304 276.578 828.304H331.422C334.227 828.304 336.918 827.19 338.902 825.206C340.886 823.222 342 820.531 342 817.726V768.578ZM276.578 762.882H331.422C332.932 762.882 334.381 763.482 335.449 764.551C336.518 765.619 337.118 767.068 337.118 768.578V777.83H270.882V768.578C270.882 767.068 271.482 765.619 272.551 764.551C273.619 763.482 275.068 762.882 276.578 762.882ZM331.422 823.422H276.578C275.068 823.422 273.619 822.822 272.551 821.754C271.482 820.685 270.882 819.237 270.882 817.726V782.737H337.118V817.726C337.118 819.237 336.518 820.685 335.449 821.754C334.381 822.822 332.932 823.422 331.422 823.422Z" fill="#C13EFF"/>
<path d="M277.961 772.256H283.657C283.978 772.256 284.295 772.193 284.591 772.07C284.888 771.948 285.157 771.768 285.383 771.541C285.61 771.314 285.79 771.045 285.913 770.749C286.035 770.453 286.098 770.136 286.098 769.815C286.098 769.494 286.035 769.177 285.913 768.881C285.79 768.585 285.61 768.316 285.383 768.089C285.157 767.862 284.888 767.682 284.591 767.56C284.295 767.437 283.978 767.374 283.657 767.374H277.961C277.314 767.374 276.693 767.631 276.235 768.089C275.777 768.547 275.52 769.168 275.52 769.815C275.52 770.462 275.777 771.083 276.235 771.541C276.693 771.999 277.314 772.256 277.961 772.256Z" fill="#C13EFF"/>
<path d="M294.097 772.256H299.793C300.114 772.256 300.431 772.193 300.727 772.07C301.023 771.948 301.292 771.768 301.519 771.541C301.746 771.314 301.926 771.045 302.048 770.749C302.171 770.453 302.234 770.136 302.234 769.815C302.234 769.494 302.171 769.177 302.048 768.881C301.926 768.585 301.746 768.316 301.519 768.089C301.292 767.862 301.023 767.682 300.727 767.56C300.431 767.437 300.114 767.374 299.793 767.374H294.097C293.45 767.374 292.829 767.631 292.371 768.089C291.913 768.547 291.656 769.168 291.656 769.815C291.656 770.462 291.913 771.083 292.371 771.541C292.829 771.999 293.45 772.256 294.097 772.256Z" fill="#C13EFF"/>
<path d="M294.122 791.525C293.652 791.079 293.025 790.838 292.378 790.855C291.731 790.872 291.117 791.145 290.672 791.614L281.949 800.817C281.518 801.271 281.278 801.872 281.278 802.497C281.278 803.123 281.518 803.724 281.949 804.178L290.663 813.373C290.884 813.607 291.149 813.796 291.442 813.928C291.736 814.06 292.053 814.134 292.375 814.143C292.697 814.153 293.017 814.1 293.318 813.985C293.62 813.871 293.895 813.699 294.13 813.478C294.364 813.258 294.553 812.993 294.685 812.699C294.818 812.406 294.891 812.089 294.901 811.767C294.91 811.445 294.857 811.125 294.743 810.823C294.629 810.522 294.456 810.247 294.236 810.012L287.116 802.502L294.236 795.015C294.461 794.781 294.637 794.503 294.753 794.199C294.87 793.895 294.924 793.571 294.914 793.246C294.903 792.921 294.828 792.601 294.692 792.305C294.556 792.01 294.362 791.744 294.122 791.525Z" fill="#C13EFF"/>
<path d="M317.328 791.647C317.107 791.413 316.842 791.225 316.548 791.093C316.254 790.961 315.937 790.889 315.615 790.88C315.293 790.871 314.973 790.925 314.672 791.04C314.371 791.155 314.096 791.328 313.862 791.549C313.628 791.77 313.44 792.035 313.308 792.329C313.177 792.623 313.104 792.94 313.095 793.262C313.086 793.584 313.141 793.904 313.255 794.205C313.37 794.506 313.543 794.781 313.764 795.015L320.884 802.502L313.764 810.012C313.337 810.485 313.111 811.106 313.135 811.742C313.159 812.379 313.431 812.982 313.894 813.42C314.356 813.859 314.971 814.1 315.608 814.091C316.246 814.082 316.854 813.824 317.304 813.373L326.051 804.178C326.482 803.724 326.722 803.123 326.722 802.497C326.722 801.872 326.482 801.271 326.051 800.817L317.328 791.647Z" fill="#C13EFF"/>
<path d="M308.703 787.228C308.396 787.134 308.073 787.102 307.754 787.133C307.434 787.164 307.123 787.257 306.84 787.408C306.556 787.56 306.305 787.765 306.102 788.014C305.898 788.262 305.745 788.548 305.652 788.856L297.678 814.756C297.489 815.379 297.555 816.051 297.862 816.624C298.168 817.198 298.691 817.627 299.313 817.815C299.936 818.004 300.608 817.938 301.182 817.631C301.755 817.325 302.184 816.802 302.373 816.18L310.347 790.28C310.441 789.971 310.473 789.648 310.441 789.327C310.409 789.006 310.313 788.695 310.161 788.412C310.008 788.128 309.8 787.877 309.55 787.674C309.3 787.471 309.012 787.32 308.703 787.228Z" fill="#C13EFF"/>
<rect x="848" y="614" width="64" height="7" fill="white"/>
<circle cx="926.5" cy="617.5" r="12.5" fill="white" stroke="white" stroke-width="7"/>
<rect x="859" y="579" width="96" height="7" fill="white"/>
<circle cx="967.5" cy="582.5" r="12.5" fill="white" stroke="white" stroke-width="7"/>
<rect x="678" y="821" width="64" height="7" fill="white"/>
<circle cx="755.5" cy="824.5" r="12.5" fill="white" stroke="white" stroke-width="7"/>
<circle cx="851.5" cy="411.5" r="12.5" stroke="white" stroke-width="7"/>
<circle cx="604.5" cy="168.5" r="12.5" fill="white" stroke="white" stroke-width="7"/>
<circle cx="272.5" cy="249.5" r="12.5" fill="white" stroke="white" stroke-width="7"/>
<circle cx="415.5" cy="852.5" r="12.5" fill="white" stroke="white" stroke-width="7"/>
<circle cx="55.5" cy="438.5" r="12.5" fill="white" stroke="white" stroke-width="7"/>
<circle cx="173.5" cy="618.5" r="12.5" fill="white" stroke="white" stroke-width="7"/>
<circle cx="744.5" cy="778.5" r="12.5" fill="white" stroke="white" stroke-width="7"/>
<circle cx="90.5" cy="395.5" r="12.5" fill="white" stroke="white" stroke-width="7"/>
<circle cx="248.5" cy="748.5" r="12.5" fill="white" stroke="white" stroke-width="7"/>
<circle cx="943.5" cy="278.5" r="12.5" fill="white" stroke="white" stroke-width="7"/>
<rect x="816" y="331" width="72" height="7" fill="white"/>
<rect x="883" y="332.912" width="72" height="7" transform="rotate(-45 883 332.912)" fill="white"/>
<circle cx="12.5" cy="12.5" r="12.5" transform="matrix(-1 0 0 1 91 623)" fill="white" stroke="white" stroke-width="7"/>
<rect width="72" height="7" transform="matrix(-1 0 0 1 205 689)" fill="white"/>
<rect width="72" height="7" transform="matrix(-0.707107 -0.707107 -0.707107 0.707107 138 690.912)" fill="white"/>
<circle cx="12.5" cy="12.5" r="12.5" transform="matrix(0.5 -0.866025 -0.866025 -0.5 729.651 112.151)" fill="white" stroke="white" stroke-width="7"/>
<rect width="72" height="7" transform="matrix(0.5 -0.866025 -0.866025 -0.5 611.062 157.854)" fill="white"/>
<rect width="72" height="7" transform="matrix(1 -3.99275e-09 -3.99275e-09 -1 641 98.9999)" fill="white"/>
<circle cx="217.075" cy="145.075" r="12.5" transform="rotate(-120 217.075 145.075)" fill="white" stroke="white" stroke-width="7"/>
<rect x="327.259" y="207.428" width="72" height="7" transform="rotate(-120 327.259 207.428)" fill="white"/>
<rect x="297.321" y="148.574" width="72" height="7" transform="rotate(-180 297.321 148.574)" fill="white"/>
<circle cx="12.5" cy="12.5" r="12.5" transform="matrix(-0.5 0.866025 0.866025 0.5 285.5 907)" fill="white" stroke="white" stroke-width="7"/>
<rect width="72" height="7" transform="matrix(-0.5 0.866025 0.866025 0.5 406.259 862.074)" fill="white"/>
<rect width="72" height="7" transform="matrix(-1 3.99275e-09 3.99275e-09 1 376.321 920.928)" fill="white"/>
<path d="M163.5 442.5L67.5 442.5L67.5 435.5L163.5 435.5L163.5 442.5Z" fill="white"/>
<path d="M175 399L103 399L103 392L175 392L175 399Z" fill="white"/>
</svg>
